<svg xmlns="http://www.w3.org/2000/svg" version="1.1" xmlns:xlink="http://www.w3.org/1999/xlink" width="1000" height="1000"><g clip-path="url(#SvgjsClipPath1074)"><rect width="1000" height="1000" fill="#2aeba6"></rect><g transform="matrix(1.8,0,0,1.8,50,50)"><svg xmlns="http://www.w3.org/2000/svg" version="1.1" xmlns:xlink="http://www.w3.org/1999/xlink" width="500" height="500"><svg width="500" height="500" viewBox="0 0 500 500" fill="none" xmlns="http://www.w3.org/2000/svg">
<rect width="500" height="500" fill="#2AEBA6"></rect>
<path d="M249.575 24.27C273.767 24.27 295.306 57.4806 309.312 109.471C355.678 82.8394 394.3 74.6692 411.383 91.7515C428.678 109.046 420.189 148.199 392.921 195.203C443.638 209.208 476 230.535 476 254.408C476 278.069 444.169 299.29 394.194 313.295C417.855 356.798 424.434 392.555 408.2 408.789C391.436 425.553 354.088 418.019 308.888 392.661C294.776 443.696 273.449 476.27 249.47 476.27C226.021 476.27 204.906 444.757 190.9 395.313C145.806 420.566 108.458 427.993 91.7998 411.334C75.248 394.888 82.4633 358.071 107.079 313.614C56.3617 299.608 24 278.281 24 254.408C24.0003 230.322 56.8927 208.784 108.353 194.884C80.1291 146.82 71.1102 106.713 88.6172 89.2056C105.594 72.123 144.109 80.2931 190.476 106.819C204.481 56.4201 225.808 24.2704 249.575 24.27ZM255.746 165.999C241.995 165.999 230.848 179.719 230.848 196.643C230.848 213.567 241.995 227.287 255.746 227.287C269.497 227.286 280.643 213.567 280.644 196.643C280.644 179.719 269.497 165.999 255.746 165.999ZM328.525 165.999C314.774 165.999 303.627 179.719 303.627 196.643C303.627 213.567 314.775 227.287 328.525 227.287C342.276 227.287 353.424 213.567 353.424 196.643C353.424 179.719 342.276 165.999 328.525 165.999Z" fill="#191918"></path>
</svg></svg></g></g><defs><clipPath id="SvgjsClipPath1074"><rect width="1000" height="1000" x="0" y="0" rx="500" ry="500"></rect></clipPath></defs></svg>