<svg width="92" height="92" viewBox="0 0 92 92" fill="none" xmlns="http://www.w3.org/2000/svg">
<path d="M45.9141 0C50.8378 0.000408616 55.2216 6.75996 58.0723 17.3418C67.5098 11.9212 75.3706 10.2584 78.8477 13.7354C82.3678 17.2555 80.6401 25.2249 75.0898 34.792C85.4125 37.6426 91.9996 41.9828 92 46.8418C92 51.6577 85.5213 55.9774 75.3496 58.8281C80.1654 67.6824 81.5042 74.9604 78.2002 78.2646C74.788 81.6768 67.1861 80.1437 57.9863 74.9824C55.114 85.3701 50.7723 92 45.8916 92C41.119 91.9996 36.8213 85.5858 33.9707 75.5225C24.7924 80.6622 17.1904 82.1738 13.7998 78.7832C10.4308 75.4358 11.8998 67.9414 16.9102 58.8926C6.58715 56.0419 0 51.701 0 46.8418C0.000414228 41.9396 6.6951 37.5556 17.1689 34.7266C11.4244 24.9435 9.58899 16.7802 13.1523 13.2168C16.6078 9.74002 24.4474 11.4028 33.8848 16.8018C36.7355 6.54364 41.0765 0 45.9141 0ZM47.1699 28.8477C44.3711 28.8477 42.1016 31.6402 42.1016 35.085C42.1017 38.5296 44.3711 41.3223 47.1699 41.3223C49.9685 41.322 52.2372 38.5294 52.2373 35.085C52.2373 31.6404 49.9686 28.8479 47.1699 28.8477ZM61.9834 28.8477C59.1845 28.8477 56.915 31.6402 56.915 35.085C56.9151 38.5296 59.1846 41.3223 61.9834 41.3223C64.782 41.322 67.0507 38.5295 67.0508 35.085C67.0508 31.6403 64.7821 28.8479 61.9834 28.8477Z" fill="#191918"/>
</svg>
