<svg width="81" height="80" viewBox="0 0 81 80" fill="none" xmlns="http://www.w3.org/2000/svg">
<path d="M40.894 80C62.9854 80 80.894 62.0914 80.894 40C80.894 17.9086 62.9854 0 40.894 0C18.8027 0 0.894043 17.9086 0.894043 40C0.894043 62.0914 18.8027 80 40.894 80Z" fill="#FCB8FF"/>
<path d="M68.8842 19.1411C62.066 12.2863 51.0112 12.2863 44.1929 19.1411L40.999 22.3689L37.7884 19.1411C30.9702 12.2863 19.9319 12.2863 13.1137 19.1411C6.29544 25.996 6.29544 37.0935 13.1137 43.9484L40.999 72L65.6903 47.1928L68.9008 43.965C75.7025 37.1102 75.7025 25.996 68.8842 19.1411Z" fill="#FD674F"/>
</svg>
