<svg width="80" height="80" viewBox="0 0 80 80" fill="none" xmlns="http://www.w3.org/2000/svg">
<g clip-path="url(#clip0_281_904)">
<path d="M40.106 80C62.1973 80 80.106 62.0914 80.106 40C80.106 17.9086 62.1973 0 40.106 0C18.0146 0 0.105957 17.9086 0.105957 40C0.105957 62.0914 18.0146 80 40.106 80Z" fill="#2AEBA6"/>
<path d="M-0.500067 40.5C-0.500068 62.5914 6.05713 80.5 14.1458 80.5C22.2345 80.5 28.7917 62.5914 28.7917 40.5C28.7917 18.4086 22.2346 0.5 14.1458 0.499999C6.05713 0.499999 -0.500066 18.4086 -0.500067 40.5Z" fill="#B295FF"/>
<path d="M28.7917 40.4998C28.7917 57.7949 33.9191 71.8153 40.244 71.8153C46.5689 71.8153 51.6963 57.7949 51.6963 40.4998C51.6963 23.2048 46.5689 9.18433 40.244 9.18433C33.9191 9.18433 28.7917 23.2048 28.7917 40.4998Z" fill="#B295FF"/>
<path d="M51.6963 40.4998C51.6963 53.1994 55.4667 63.4944 60.1177 63.4944C64.7687 63.4944 68.5391 53.1994 68.5391 40.4998C68.5391 27.8002 64.7687 17.5051 60.1177 17.5051C55.4667 17.5051 51.6963 27.8002 51.6963 40.4998Z" fill="#B295FF"/>
<path d="M68.5392 40.5855C68.5392 49.6111 71.2167 56.9278 74.5196 56.9278C77.8225 56.9278 80.5 49.6111 80.5 40.5855C80.5 31.56 77.8225 24.2433 74.5196 24.2433C71.2167 24.2433 68.5392 31.56 68.5392 40.5855Z" fill="#B295FF"/>
</g>
<defs>
<clipPath id="clip0_281_904">
<rect width="80" height="80" rx="40" fill="white"/>
</clipPath>
</defs>
</svg>
