<svg width="16" height="17" viewBox="0 0 16 17" fill="none" xmlns="http://www.w3.org/2000/svg">
<path fill-rule="evenodd" clip-rule="evenodd" d="M6.03231 0.520582C6.38906 0.515559 6.78621 0.513714 7.23123 0.514431L7.23174 0.514533L8.7176 0.523657L9.87792 0.537343L10.7947 0.557846C11.0645 0.566047 11.3007 0.576197 11.5108 0.589114C11.7208 0.602031 11.9045 0.617562 12.069 0.636783C12.2335 0.656005 12.3788 0.67861 12.5121 0.705725C12.6453 0.73284 12.7664 0.764261 12.8828 0.80091C12.9985 0.837652 13.1124 0.879851 13.2241 0.927364C13.3377 0.975238 13.4535 1.02921 13.5786 1.09005C13.654 1.12667 13.7284 1.16543 13.8016 1.20631C13.8735 1.24651 13.9443 1.28883 14.0137 1.33322C14.0822 1.37699 14.1493 1.42284 14.215 1.4707C14.2801 1.51807 14.3436 1.56745 14.4055 1.61878C14.4672 1.66993 14.527 1.72283 14.5851 1.77747C14.6432 1.83209 14.6995 1.88854 14.7539 1.94673C14.8085 2.00498 14.8611 2.06495 14.9119 2.12654C14.9629 2.18846 15.012 2.25197 15.059 2.31696C15.1063 2.38216 15.1517 2.44915 15.1953 2.51789C15.239 2.58663 15.2807 2.65711 15.3207 2.72938C15.3608 2.80165 15.3989 2.87562 15.4353 2.95143C15.4717 3.02724 15.5066 3.10469 15.5389 3.18399C15.5712 3.26328 15.6021 3.34432 15.6312 3.4271C15.6606 3.51091 15.688 3.59547 15.7131 3.68067C15.7389 3.76813 15.7626 3.8562 15.7841 3.9448C15.8062 4.03586 15.8262 4.12742 15.8442 4.21939C15.8604 4.30263 15.8756 4.42575 15.8898 4.58209L15.9287 5.14388L15.96 5.86446L15.9829 6.7037L16 8.57743L15.9927 9.53144L15.9735 10.4438L15.9466 11.2628L15.9154 11.9213C15.9036 12.1174 15.8901 12.292 15.8744 12.45C15.8586 12.608 15.8404 12.7494 15.8188 12.8794C15.7973 13.0094 15.7724 13.1279 15.7435 13.2402C15.7154 13.3493 15.682 13.457 15.6435 13.5629C15.6044 13.6696 15.561 13.7747 15.5136 13.878C15.4648 13.9852 15.4102 14.0962 15.3489 14.2162C15.3082 14.2959 15.2682 14.3678 15.2248 14.437C15.1803 14.5079 15.132 14.5763 15.0802 14.6421C15.0259 14.7114 14.9639 14.7833 14.8904 14.8632C14.8168 14.9431 14.7315 15.031 14.6304 15.1321C14.5153 15.2472 14.4224 15.3382 14.3404 15.4138C14.2584 15.4893 14.1872 15.5493 14.1157 15.602C14.0431 15.6551 13.9672 15.7035 13.8884 15.7467C13.8046 15.7932 13.7091 15.8409 13.5906 15.898C13.5134 15.9352 13.4364 15.9702 13.3594 16.003C13.2829 16.0357 13.2056 16.0665 13.1276 16.0953C13.0501 16.1241 12.972 16.1508 12.8932 16.1756C12.8144 16.2003 12.7347 16.2236 12.6539 16.2442C12.5723 16.2653 12.4902 16.2845 12.4077 16.3017C12.3242 16.3191 12.2392 16.3348 12.1523 16.3489C12.0653 16.3629 11.9761 16.3753 11.8855 16.3861C11.795 16.3969 11.7012 16.4061 11.6054 16.4139L11.1587 16.4369L10.4732 16.4562L8.67029 16.4814L6.76632 16.4853C6.17819 16.4826 5.66817 16.4754 5.33126 16.4632C5.11315 16.4553 4.91017 16.4455 4.72026 16.4332C4.53035 16.4209 4.35362 16.4062 4.18795 16.3884C4.02229 16.3706 3.86723 16.3499 3.72217 16.3259C3.57711 16.3018 3.44005 16.2741 3.31057 16.2427C3.18109 16.2112 3.05859 16.1757 2.941 16.1358C2.82342 16.096 2.71086 16.0516 2.60106 16.0024C2.49127 15.9531 2.38445 15.8989 2.27855 15.8392C2.17265 15.7795 2.06752 15.7145 1.96126 15.6434C1.84678 15.567 1.7361 15.4851 1.62963 15.3979C1.52439 15.3117 1.42454 15.2209 1.32987 15.1256C1.23534 15.0305 1.14581 14.9305 1.06164 14.8261C0.977371 14.7216 0.898434 14.6126 0.824622 14.4988C0.750811 14.3851 0.682126 14.2667 0.618566 14.1435C0.555007 14.0202 0.496573 13.8922 0.443162 13.7594C0.388824 13.6239 0.340425 13.4861 0.298103 13.3463C0.253901 13.2003 0.21553 13.0527 0.18308 12.9036C0.167088 12.8303 0.152223 12.7457 0.138384 12.6489C0.123188 12.5399 0.110523 12.4306 0.100402 12.321L0.068827 11.9146L0.0435569 11.424L0.010752 10.1682L0.000244141 8.51069L0.00383217 7.37087L0.0162366 6.42788L0.0393025 5.6543C0.0490415 5.42164 0.0609333 5.21261 0.0752854 5.02265C0.0879813 4.84988 0.10497 4.67744 0.126236 4.50551C0.14597 4.34866 0.168421 4.20683 0.194152 4.07495C0.219884 3.94306 0.248742 3.82112 0.281188 3.70456C0.312991 3.59051 0.349085 3.47769 0.389393 3.36636C0.443726 3.21577 0.498162 3.08085 0.556493 2.95558C0.585 2.89425 0.615306 2.83378 0.647373 2.77423C0.678948 2.71569 0.711958 2.6588 0.746813 2.60293C0.782031 2.54656 0.819006 2.49131 0.857684 2.43726C0.896793 2.38242 0.938312 2.32788 0.98265 2.27273C1.07133 2.16237 1.17123 2.04991 1.2862 1.9293C1.37769 1.83278 1.46575 1.74641 1.55197 1.66788C1.63445 1.59242 1.72043 1.52089 1.80964 1.45352C1.89627 1.38843 1.98474 1.32866 2.07813 1.27207C2.17152 1.21548 2.26983 1.16202 2.37625 1.10922C2.51454 1.04064 2.64883 0.979441 2.78651 0.924903C2.85535 0.897634 2.92506 0.872108 2.99652 0.848016C3.06944 0.823505 3.14302 0.801011 3.21718 0.780561C3.29304 0.759648 3.37167 0.740169 3.45399 0.722126C3.53631 0.704083 3.62217 0.687477 3.71264 0.6721C3.80766 0.656097 3.903 0.642066 3.99861 0.630016C4.09907 0.617253 4.20507 0.605669 4.31743 0.595315C4.54214 0.574555 4.79248 0.558513 5.07584 0.546211L6.03231 0.520582ZM10.1456 1.93632L8.00291 1.92412L8.00327 1.92366L5.86387 1.93673L5.05964 1.95262C4.83867 1.95893 4.67085 1.96641 4.57346 1.97481C4.43383 1.98691 4.30323 2.00085 4.18047 2.017C4.0577 2.03315 3.94273 2.05165 3.83448 2.07287C3.73153 2.09281 3.62944 2.11698 3.52847 2.1453C3.43236 2.17298 3.34163 2.20348 3.25526 2.23756C3.1689 2.27165 3.08678 2.30953 3.00779 2.35146C2.9288 2.39339 2.85294 2.439 2.77898 2.49026C2.70374 2.54204 2.6312 2.59762 2.56165 2.6568C2.48798 2.71952 2.41694 2.78528 2.34872 2.85389C2.29018 2.91247 2.23621 2.96932 2.18623 3.0256C2.13626 3.08188 2.09033 3.13739 2.04768 3.19362C2.00504 3.24985 1.96593 3.30639 1.92969 3.36467C1.89345 3.42295 1.86008 3.48282 1.82902 3.54535C1.79721 3.60966 1.76829 3.67535 1.74234 3.74223C1.71543 3.81128 1.69026 3.88417 1.66638 3.96198C1.64124 4.04442 1.61839 4.12754 1.59785 4.21124C1.57586 4.29997 1.55458 4.39474 1.53347 4.49659C1.52706 4.52755 1.52081 4.57912 1.51476 4.64873L1.49733 4.90937L1.46657 5.69792L1.42623 7.93604L1.42111 10.2783L1.43505 11.1971C1.44171 11.4554 1.45043 11.6602 1.4614 11.7916C1.47626 11.9701 1.49492 12.138 1.51809 12.2964C1.54126 12.4548 1.56863 12.6035 1.60072 12.7434C1.6328 12.8833 1.66971 13.0146 1.71174 13.1378C1.73276 13.1994 1.7551 13.2591 1.77868 13.3169C1.80189 13.3737 1.82694 13.4297 1.85378 13.4849C1.88017 13.539 1.90796 13.5915 1.93717 13.6423C1.96609 13.6926 1.99681 13.7418 2.02928 13.7899C2.06128 13.8372 2.09501 13.8834 2.13041 13.9283C2.16568 13.973 2.20243 14.0161 2.24087 14.0581C2.27945 14.1001 2.31953 14.1408 2.36102 14.18C2.4028 14.2193 2.44611 14.2576 2.49122 14.2947C2.53632 14.3318 2.58317 14.3672 2.63166 14.4027C2.68015 14.4382 2.73054 14.4718 2.78267 14.5049C2.85176 14.5488 2.92009 14.5891 2.98914 14.6262C3.05818 14.6633 3.12789 14.6973 3.19965 14.7283C3.27141 14.7593 3.34517 14.7875 3.42231 14.8131C3.50233 14.8396 3.58338 14.8628 3.66528 14.8827C3.75509 14.9046 3.84561 14.9234 3.93669 14.9391C4.03279 14.9559 4.13495 14.9709 4.24464 14.9842C4.35433 14.9976 4.47141 15.0094 4.5973 15.02L5.00274 15.0485L5.55259 15.0656L6.39936 15.0747L8.55557 15.0713L10.6156 15.0445L11.3423 15.0243C11.5329 15.0169 11.666 15.009 11.724 15.0005C11.8746 14.9788 12.0243 14.9508 12.1726 14.9166C12.3149 14.8835 12.45 14.8452 12.5782 14.8015C12.6412 14.7801 12.7036 14.7569 12.7653 14.732C12.825 14.7079 12.8839 14.6821 12.9421 14.6544C12.9992 14.6272 13.0548 14.5986 13.1086 14.5687C13.1625 14.5388 13.2147 14.5074 13.2653 14.4747C13.3159 14.442 13.3648 14.4078 13.4121 14.3723C13.4595 14.3367 13.5052 14.2998 13.5493 14.2613C13.5933 14.2229 13.6359 14.1831 13.6769 14.1418C13.7179 14.1006 13.7573 14.0578 13.7951 14.0137C13.8331 13.9693 13.8695 13.9237 13.9041 13.8767C13.939 13.8296 13.9723 13.781 14.0041 13.7309C14.0362 13.6803 14.0665 13.6287 14.0951 13.5761C14.124 13.5229 14.1513 13.4683 14.1773 13.4122C14.2065 13.3493 14.2343 13.2858 14.2606 13.2217C14.2855 13.161 14.3086 13.0995 14.3298 13.0374C14.3508 12.9755 14.3698 12.913 14.3866 12.8499C14.4042 12.7838 14.4197 12.7171 14.433 12.65C14.4476 12.5764 14.4602 12.5025 14.4709 12.4283C14.4823 12.3497 14.4925 12.2659 14.502 12.1754C14.5208 11.9944 14.5366 11.7864 14.5516 11.5389L14.5732 11.0105L14.5889 10.284L14.6019 8.5009L14.5905 6.7161L14.5754 5.98748C14.5694 5.77378 14.5624 5.59284 14.5543 5.45573C14.5441 5.28478 14.5318 5.12501 14.517 4.97519C14.5021 4.82536 14.4846 4.68543 14.4641 4.55421C14.445 4.43043 14.4213 4.30741 14.393 4.18541C14.366 4.07033 14.3355 3.96264 14.3013 3.8613C14.267 3.75997 14.2289 3.66463 14.1864 3.57442C14.1449 3.48592 14.098 3.40007 14.0459 3.31736C13.9944 3.23581 13.938 3.15743 13.8771 3.08265C13.8159 3.0074 13.7496 2.93446 13.6777 2.86285C13.6096 2.79499 13.5398 2.73153 13.4679 2.67233C13.3959 2.61313 13.3218 2.55818 13.2449 2.50718C13.1676 2.45593 13.0877 2.4088 13.0055 2.36596C12.9226 2.3228 12.8365 2.28339 12.7465 2.24756C12.6564 2.21173 12.5625 2.17933 12.4643 2.15042C12.366 2.12152 12.2634 2.09589 12.1557 2.07333C12.0436 2.05008 11.9308 2.03061 11.8174 2.01495C11.6993 1.99855 11.5757 1.98486 11.446 1.97394C11.3465 1.96549 11.1766 1.95816 10.954 1.9519L10.1456 1.93632ZM12.2649 3.26086C12.2324 3.26087 12.2 3.26251 12.1676 3.26578C12.1353 3.26905 12.1032 3.27395 12.0713 3.28044C12.0395 3.28694 12.008 3.29503 11.977 3.30469C11.9459 3.31436 11.9154 3.32558 11.8855 3.33831C11.8556 3.35107 11.8263 3.36532 11.7978 3.38101C11.7693 3.39668 11.7416 3.41377 11.7147 3.43222C11.6879 3.45069 11.662 3.4705 11.6372 3.49158C11.6123 3.51263 11.5886 3.53492 11.5659 3.55836C11.5433 3.58182 11.5218 3.60641 11.5017 3.63202C11.4815 3.65764 11.4626 3.68426 11.445 3.71178C11.4275 3.73928 11.4113 3.76764 11.3966 3.79676C11.3818 3.82591 11.3685 3.85578 11.3568 3.88626C11.345 3.91674 11.3347 3.94779 11.326 3.97929C11.3174 4.0108 11.3102 4.04272 11.3047 4.07494C11.2992 4.10715 11.2953 4.13962 11.293 4.17223C11.2914 4.19532 11.2905 4.21847 11.2905 4.24163C11.2905 4.27434 11.2922 4.30703 11.2954 4.33958C11.2986 4.37212 11.3035 4.40447 11.31 4.43651C11.3164 4.46856 11.3244 4.50026 11.334 4.53149C11.3437 4.56274 11.3548 4.59348 11.3675 4.6236C11.3801 4.65373 11.3943 4.68321 11.4099 4.71192C11.4254 4.74062 11.4424 4.76853 11.4608 4.79552C11.4791 4.8225 11.4988 4.84854 11.5197 4.87354C11.5406 4.89855 11.5628 4.9225 11.5861 4.9453C11.6094 4.96807 11.6338 4.98966 11.6593 5.00998C11.6847 5.03032 11.7112 5.04936 11.7385 5.06703C11.7659 5.08471 11.7941 5.10099 11.823 5.11583C11.852 5.13067 11.8817 5.14405 11.9119 5.15591C11.9422 5.16776 11.973 5.17808 12.0043 5.18682C12.0356 5.19555 12.0674 5.20271 12.0994 5.20825C12.1314 5.21382 12.1636 5.21777 12.196 5.22009C12.219 5.22173 12.242 5.22255 12.265 5.22255C12.2975 5.22256 12.3299 5.22093 12.3623 5.21768C12.3946 5.21441 12.4267 5.20952 12.4586 5.20302C12.4904 5.19653 12.5219 5.18844 12.553 5.17878C12.584 5.16911 12.6145 5.15789 12.6444 5.14515C12.6744 5.13242 12.7036 5.11818 12.7322 5.1025C12.7607 5.08682 12.7884 5.06971 12.8152 5.05125C12.842 5.03279 12.8679 5.013 12.8927 4.99194C12.9176 4.97087 12.9414 4.94856 12.964 4.9251C12.9866 4.90164 13.0081 4.87706 13.0283 4.85144C13.0485 4.82582 13.0674 4.79921 13.0849 4.77169C13.1025 4.74417 13.1186 4.71579 13.1333 4.68665C13.1481 4.6575 13.1614 4.62764 13.1732 4.59715C13.1849 4.56668 13.1952 4.53563 13.2039 4.50412C13.2126 4.47262 13.2197 4.44069 13.2252 4.40847C13.2307 4.37626 13.2346 4.34379 13.2369 4.31119C13.2386 4.28809 13.2394 4.26494 13.2394 4.24178C13.2394 4.20909 13.2378 4.17641 13.2345 4.14388C13.2313 4.11135 13.2264 4.079 13.22 4.04695C13.2135 4.01491 13.2055 3.98321 13.1959 3.95197C13.1863 3.92073 13.1751 3.88999 13.1625 3.85986C13.1498 3.82973 13.1357 3.80025 13.1201 3.77154C13.1045 3.74284 13.0875 3.71494 13.0692 3.68794C13.0508 3.66095 13.0311 3.63489 13.0102 3.60988C12.9893 3.58486 12.9671 3.56091 12.9438 3.53812C12.9205 3.51534 12.8961 3.49375 12.8706 3.47343C12.8452 3.45311 12.8187 3.43409 12.7914 3.41643C12.7641 3.39876 12.7358 3.38247 12.7069 3.36763C12.6779 3.35279 12.6483 3.33941 12.618 3.32755C12.5877 3.3157 12.5569 3.30539 12.5256 3.29664C12.4943 3.28789 12.4626 3.28073 12.4306 3.27517C12.3985 3.26962 12.3663 3.26568 12.3339 3.26338C12.3109 3.26174 12.2879 3.26092 12.2649 3.26092V3.26086ZM8.00723 4.42364C7.86653 4.42364 7.72736 4.43081 7.59025 4.44486C7.45313 4.4589 7.31791 4.47971 7.185 4.50703C7.05209 4.53435 6.92154 4.56818 6.7936 4.60811L6.41808 4.746L6.06056 4.91863L5.72318 5.12392L5.40795 5.3597L5.11706 5.62394L4.85257 5.91457L4.61653 6.22945L4.41098 6.56652L4.23825 6.92363C4.18632 7.04578 4.14014 7.171 4.10016 7.29884C4.06018 7.42667 4.02635 7.55718 3.99897 7.68993C3.9716 7.82269 3.95079 7.95775 3.9367 8.09477C3.9226 8.23178 3.91553 8.37079 3.91553 8.51134C3.91553 8.65189 3.9227 8.7909 3.9367 8.92791C3.95061 9.06384 3.9714 9.19897 3.99897 9.33279C4.02635 9.46606 4.06018 9.59605 4.10016 9.72389C4.14014 9.85173 4.18627 9.9769 4.23825 10.0991L4.41098 10.4562L4.61653 10.7932L4.85257 11.1082L5.11706 11.3988L5.40795 11.663L5.72318 11.8988L6.06056 12.1041L6.41808 12.2767L6.7936 12.4146L7.185 12.5157C7.31895 12.5433 7.4542 12.564 7.59025 12.5779C7.72879 12.5921 7.86796 12.5991 8.00723 12.5991C8.14793 12.5991 8.28709 12.5919 8.42416 12.5779C8.5602 12.564 8.69545 12.5433 8.8294 12.5157L9.22086 12.4146L9.59637 12.2767L9.95384 12.1041L10.2913 11.8988L10.6065 11.663L10.8974 11.3988L11.1619 11.1082L11.398 10.7932L11.6035 10.4562L11.7763 10.0991L11.9143 9.72389C11.9543 9.59605 11.9882 9.46555 12.0155 9.33279L12.0778 8.92786C12.0919 8.79085 12.099 8.65184 12.099 8.51129C12.099 8.37074 12.0919 8.23173 12.0778 8.09472C12.0639 7.95881 12.0431 7.82369 12.0155 7.68988C11.9882 7.55661 11.9543 7.42667 11.9143 7.29879L11.7763 6.92358L11.6035 6.56647L11.398 6.22939L11.1619 5.91452L10.8974 5.62389L10.6065 5.35965L10.2913 5.12387L9.95384 4.91858L9.59637 4.74594L9.22086 4.60806L8.8294 4.50698L8.42416 4.4448C8.28563 4.43066 8.14647 4.42357 8.00723 4.42358V4.42364ZM8.00723 5.83456C8.10026 5.83456 8.19206 5.83917 8.28248 5.84829L8.54902 5.88863L8.80649 5.95424L9.05304 6.04379L9.28744 6.15604L9.50785 6.28957L9.71391 6.44319L9.90387 6.61552L10.0763 6.80527L10.2301 7.01113L10.3638 7.23184L10.4761 7.46609C10.5098 7.54626 10.5397 7.62842 10.5658 7.71244C10.5918 7.79645 10.6137 7.8823 10.6314 7.96975C10.6491 8.05719 10.6621 8.14618 10.6717 8.23655L10.6854 8.51159C10.6854 8.60452 10.6808 8.69628 10.6717 8.7867C10.6626 8.87711 10.6492 8.9661 10.6314 9.05349C10.6136 9.14089 10.5916 9.22674 10.5658 9.31081L10.4761 9.55715L10.3638 9.7914L10.2301 10.0121L10.0763 10.218L9.90387 10.4077L9.71391 10.58L9.50785 10.7337L9.28744 10.8672L9.05304 10.9795L8.80649 11.069L8.54902 11.1346L8.28248 11.1749C8.191 11.1841 8.09912 11.1886 8.00718 11.1886C7.91522 11.1886 7.82332 11.1841 7.73182 11.1749L7.46528 11.1346C7.37778 11.1169 7.29187 11.0949 7.20776 11.069L6.96121 10.9795L6.72681 10.8672L6.5064 10.7337L6.30034 10.58L6.11038 10.4077L5.9379 10.218L5.78413 10.0121L5.65045 9.7914L5.53819 9.55715L5.44849 9.31081L5.38288 9.05349L5.34254 8.7867C5.33337 8.69528 5.32878 8.60347 5.32881 8.51159C5.32878 8.41974 5.33337 8.32794 5.34254 8.23655C5.35162 8.14618 5.3651 8.05714 5.38288 7.96975C5.40049 7.88296 5.42241 7.7971 5.44854 7.71249L5.53825 7.46614L5.6505 7.23189L5.78418 7.01118L5.93795 6.80533L6.11044 6.61557L6.3004 6.44324L6.50645 6.28962L6.72686 6.1561L6.96126 6.04384C7.04194 6.00996 7.12424 5.98007 7.20786 5.95429L7.46538 5.88868C7.55288 5.87095 7.64196 5.85742 7.73192 5.84834C7.82342 5.83918 7.91532 5.83459 8.00728 5.83461L8.00723 5.83456Z" fill="#242424"/>
</svg>
