<svg width="80" height="80" viewBox="0 0 80 80" fill="none" xmlns="http://www.w3.org/2000/svg">
<path d="M40 80C62.0914 80 80 62.0914 80 40C80 17.9086 62.0914 0 40 0C17.9086 0 0 17.9086 0 40C0 62.0914 17.9086 80 40 80Z" fill="#FD674F"/>
<path d="M40 59C62.0914 59 80 50.4934 80 40C80 29.5066 62.0914 21 40 21C17.9086 21 0 29.5066 0 40C0 50.4934 17.9086 59 40 59Z" fill="white"/>
<path d="M40 21C29.5116 21 21 29.5013 21 40C21 50.4987 29.5013 59 40 59C50.4987 59 59 50.4987 59 40C59 29.5013 50.4884 21 40 21ZM40 47.9482C35.6059 47.9482 32.0518 44.3838 32.0518 40C32.0518 35.6162 35.6162 32.0518 40 32.0518C44.3941 32.0518 47.9482 35.6162 47.9482 40C47.9482 44.3838 44.3941 47.9482 40 47.9482Z" fill="#401A13"/>
</svg>
