<svg width="16" height="17" viewBox="0 0 16 17" fill="none" xmlns="http://www.w3.org/2000/svg">
<path fill-rule="evenodd" clip-rule="evenodd" d="M4.65012 0.5H11.3499C13.9149 0.5 16 2.58507 16 5.15012V11.8499C16 14.4149 13.9149 16.5 11.3499 16.5H4.65012C2.08507 16.5 0 14.4149 0 11.8499V5.15012C0 2.58507 2.08507 0.5 4.65012 0.5ZM11.3499 15.2302C13.214 15.2302 14.7302 13.7141 14.7302 11.8499V5.15012C14.7302 3.28596 13.2141 1.76977 11.3499 1.76977H4.65012C2.78596 1.76977 1.26977 3.28594 1.26977 5.15012V11.8499C1.26977 13.714 2.78594 15.2302 4.65012 15.2302H11.3499ZM5.09705 4.56348C4.52715 4.56348 4.06352 5.02763 4.06352 5.59815C4.06352 6.16892 4.52715 6.63325 5.09705 6.63325C5.66649 6.63325 6.12975 6.1689 6.12975 5.59815C6.12977 5.02763 5.66649 4.56348 5.09705 4.56348ZM5.87961 7.07037H4.31336C4.24384 7.07037 4.18752 7.12684 4.18752 7.19649V12.2393C4.18752 12.3089 4.24384 12.3654 4.31336 12.3654H5.87961C5.94912 12.3654 6.00545 12.3089 6.00545 12.2393V7.19649C6.00545 7.12684 5.94912 7.07037 5.87961 7.07037ZM8.48734 7.52401C8.7694 7.21606 9.23442 6.94504 9.86348 6.94504C11.6276 6.94504 11.8655 8.22306 11.8655 9.47324V12.2393C11.8655 12.309 11.8091 12.3654 11.7396 12.3654H10.1762C10.1067 12.3654 10.0504 12.309 10.0504 12.2393V9.78752C10.0504 9.10105 9.99976 8.57596 9.36287 8.57596C8.77808 8.57596 8.55021 8.90351 8.55021 9.74427V12.2393C8.55021 12.3089 8.49389 12.3654 8.42438 12.3654H6.86155C6.79203 12.3654 6.73571 12.3089 6.73571 12.2393V7.19649C6.73571 7.12684 6.79203 7.07037 6.86155 7.07037H8.36151C8.43102 7.07037 8.48734 7.12684 8.48734 7.19649V7.52401Z" fill="#242424"/>
</svg>
