<svg width="16" height="17" viewBox="0 0 16 17" fill="none" xmlns="http://www.w3.org/2000/svg">
<path opacity="0.8" fill-rule="evenodd" clip-rule="evenodd" d="M12.0841 0.5H6.44221C4.70109 0.5 3.22259 1.64082 2.71459 3.21459C1.14082 3.72259 0 5.20109 0 6.94221V12.5841C0 14.7442 1.75585 16.5 3.91589 16.5H9.55779C11.2989 16.5 12.7774 15.3592 13.2854 13.7854C14.8592 13.2774 16 11.7989 16 10.0578V4.41589C16 2.25585 14.2442 0.5 12.0841 0.5ZM13.4737 12.5417C14.3425 12.0538 14.9307 11.1233 14.9307 10.0578V4.41589C14.9307 2.84607 13.6539 1.56928 12.0841 1.56928H6.44221C5.37669 1.56928 4.44617 2.1575 3.95828 3.02632H9.55779C11.7178 3.02632 13.4737 4.78216 13.4737 6.94221V12.5417ZM9.55779 15.4307C11.1276 15.4307 12.4044 14.1539 12.4044 12.5841V6.94221C12.4044 5.37239 11.1276 4.09559 9.55779 4.09559H3.91589C2.34607 4.09559 1.06928 5.37238 1.06928 6.94221V12.5841C1.06928 14.1539 2.34606 15.4307 3.91589 15.4307H9.55779Z" fill="#FDF6ED"/>
</svg>
