<svg width="80" height="80" viewBox="0 0 80 80" fill="none" xmlns="http://www.w3.org/2000/svg">
<g clip-path="url(#clip0_281_1316)">
<path d="M39.8564 80C61.9478 80 79.8564 62.0914 79.8564 40C79.8564 17.9086 61.9478 0 39.8564 0C17.7651 0 -0.143555 17.9086 -0.143555 40C-0.143555 62.0914 17.7651 80 39.8564 80Z" fill="#2AEBA6"/>
<path d="M1.21777 3.8743e-07L1.21777 23.2668C10.4684 23.2668 17.9509 30.7709 17.9509 40C17.9509 49.2507 10.4469 56.7332 1.21777 56.7332L1.21777 80C23.3202 80 41.2178 62.0809 41.2178 40C41.2178 17.9191 23.3202 -5.78698e-07 1.21777 3.8743e-07Z" fill="#B295FF"/>
<path d="M41.218 40C41.218 62.0809 59.1156 80 81.218 80L81.218 56.7547C71.9673 56.7547 64.4849 49.2507 64.4849 40.0216C64.4849 30.7709 71.9889 23.2884 81.218 23.2884L81.218 0.043128C59.1156 2.2367e-06 41.218 17.9191 41.218 40Z" fill="#B295FF"/>
</g>
<defs>
<clipPath id="clip0_281_1316">
<rect width="80" height="80" rx="40" fill="white"/>
</clipPath>
</defs>
</svg>
