<svg width="36" height="41" viewBox="0 0 36 41" fill="none" xmlns="http://www.w3.org/2000/svg">
<path fill-rule="evenodd" clip-rule="evenodd" d="M20.8184 0.5H14.3125V25.7174H20.8184V0.5ZM29.0666 36.0429C32.1169 33.1891 33.8305 29.3185 33.8305 25.2826H27.4626C27.4626 27.7384 26.4199 30.0936 24.5639 31.8301C22.7078 33.5667 20.1905 34.5422 17.5657 34.5422C14.9409 34.5422 12.4235 33.5667 10.5675 31.8301C8.71146 30.0936 7.66875 27.7384 7.66875 25.2826L1.3009 25.2826C1.3009 29.3185 3.0145 33.1891 6.06474 36.0429C9.11498 38.8967 13.252 40.5 17.5657 40.5C21.8794 40.5 26.0164 38.8967 29.0666 36.0429ZM0 13.5435C0 11.3876 1.74768 9.63043 3.90355 9.63043C6.05942 9.63043 7.8071 11.3876 7.8071 13.5435C7.8071 15.6993 6.05942 17.4565 3.90355 17.4565C1.74768 17.4565 0 15.6993 0 13.5435ZM28.6328 11.3767C29.6599 10.3456 30.4198 9.20872 30.7956 8.32608C31.1731 9.20872 31.9309 10.3473 32.9583 11.3767C33.9857 12.4061 35.1196 13.166 36.0003 13.5443C35.1196 13.9227 33.9854 14.6822 32.9583 15.712C31.9312 16.7417 31.1731 17.8782 30.7956 18.7609C30.418 17.8782 29.6599 16.7414 28.6328 15.712C27.6057 14.6826 26.4715 13.9227 25.5908 13.5443C26.4715 13.166 27.6057 12.4078 28.6328 11.3767Z" fill="#242424"/>
</svg>
