<svg width="320" height="300" viewBox="0 0 320 300" fill="none" xmlns="http://www.w3.org/2000/svg">
<g clip-path="url(#clip0_237_742)">
<path d="M-12.6163 7.52923e-06C34.9622 5.45114e-06 73.5756 38.6513 73.5756 86.2766C73.5756 38.6513 112.11 0.0787216 159.767 0C207.346 1.29804e-05 245.959 38.6513 245.959 86.2766C245.959 38.6513 284.573 9.60733e-06 332.151 7.52923e-06C379.73 5.45114e-06 418.343 38.6513 418.343 86.2766C418.343 38.6513 456.878 0.0787216 504.535 0V300C456.956 300 418.343 261.349 418.343 213.723C418.343 261.349 379.73 300 332.151 300C284.573 300 245.959 261.349 245.959 213.723C245.959 261.349 207.346 300 159.767 300C112.189 300 73.5756 261.349 73.5756 213.723C73.5756 261.349 34.9623 300 -12.6163 300C-60.1948 300 -98.8081 261.349 -98.8081 213.723C-98.8081 261.349 -137.421 300 -185 300L-185 1.50585e-05C-137.421 1.29804e-05 -98.8081 38.6513 -98.8081 86.2766C-98.8081 38.6513 -60.1948 9.60733e-06 -12.6163 7.52923e-06Z" fill="black"/>
</g>
<defs>
<clipPath id="clip0_237_742">
<rect width="320" height="300" fill="white"/>
</clipPath>
</defs>
</svg>
