<svg width="305" height="309" viewBox="0 0 305 309" fill="none" xmlns="http://www.w3.org/2000/svg">
<path d="M152.059 0L150.989 1.08744C108.936 42.912 41.5356 42.4938 0.0585938 0C41.7825 42.1592 42.2762 110.668 1.12843 153.413L0.0585938 154.5C41.7825 196.659 42.2762 265.168 1.12843 307.913L0.0585938 309C41.5356 266.59 108.936 266.088 150.989 307.913L152.059 309C193.536 266.59 260.936 266.088 302.989 307.913C261.841 265.168 262.252 196.659 304.059 154.5L302.989 153.413C261.841 110.668 262.252 42.1592 304.059 0L302.989 1.08744C260.936 42.912 193.536 42.4101 152.059 0Z" fill="black"/>
</svg>
