<svg width="303" height="309" viewBox="0 0 303 309" fill="none" xmlns="http://www.w3.org/2000/svg">
<path d="M303 38.625C303 17.2935 285.673 0 264.3 0H38.6996C17.3269 0 0 17.2935 0 38.625C0 59.9565 17.3269 77.25 38.6996 77.25C17.3269 77.25 0 94.5435 0 115.875C0 137.207 17.3269 154.5 38.6996 154.5C17.3269 154.5 0 171.793 0 193.125C0 214.457 17.3269 231.75 38.6996 231.75C17.3269 231.75 0 249.043 0 270.375C0 291.707 17.3269 309 38.6996 309H264.212C285.585 309 302.912 291.707 302.912 270.375C302.912 249.043 285.585 231.75 264.212 231.75C285.585 231.75 302.912 214.457 302.912 193.125C302.912 171.793 285.585 154.5 264.212 154.5C285.585 154.5 302.912 137.207 302.912 115.875C302.912 94.5435 285.585 77.25 264.212 77.25C285.673 77.3378 303 59.9565 303 38.625Z" fill="black"/>
</svg>
